HIERARCHY
ROOT Hips
{
    OFFSET 11.294918060302734 87.58573532104492 -17.792896270751953
    CHANNELS 6 Xposition Yposition Zposition Zrotation Xrotation Yrotation
    JOINT RightUpLeg
    {
        OFFSET -11.294918060302734 0.0 0.0
        CHANNELS 3 Zrotation Xrotation Yrotation
        JOINT RightLeg
        {
            OFFSET 0.0 -43.103492736816406 0.0
            CHANNELS 3 Zrotation Xrotation Yrotation
            JOINT RightFoot
            {
                OFFSET 0.0 -44.482242584228516 0.0
                CHANNELS 3 Zrotation Xrotation Yrotation
                End Site
                {
                    OFFSET 0.0 0.0 17.792896270751953
                }
            }
        }
    }
    JOINT LeftUpLeg
    {
        OFFSET 11.294918060302734 0.0 0.0
        CHANNELS 3 Zrotation Xrotation Yrotation
        JOINT LeftLeg
        {
            OFFSET 0.0 -43.103492736816406 0.0
            CHANNELS 3 Zrotation Xrotation Yrotation
            JOINT LeftFoot
            {
                OFFSET 0.0 -44.482242584228516 0.0
                CHANNELS 3 Zrotation Xrotation Yrotation
                End Site
                {
                    OFFSET 0.0 0.0 17.792896270751953
                }
            }
        }
    }
    JOINT Spine
    {
        OFFSET 0.0 23.616016387939453 0.0
        CHANNELS 3 Zrotation Xrotation Yrotation
        JOINT Spine3
        {
            OFFSET 0.0 25.01082992553711 0.0
            CHANNELS 3 Zrotation Xrotation Yrotation
            JOINT Neck
            {
                OFFSET 0.0 11.218377113342285 0.0
                CHANNELS 3 Zrotation Xrotation Yrotation
                End Site
                {
                    OFFSET 0.0 4.487350940704346 0.0
                }
            }
            JOINT LeftArm
            {
                OFFSET 12.673831939697266 0.0 0.0
                CHANNELS 3 Zrotation Xrotation Yrotation
                JOINT LeftForeArm
                {
                    OFFSET 23.5552978515625 0.0 0.0
                    CHANNELS 3 Zrotation Xrotation Yrotation
                    JOINT LeftHand
                    {
                        OFFSET 17.840646743774414 0.0 0.0
                        CHANNELS 3 Zrotation Xrotation Yrotation
                        End Site
                        {
                            OFFSET 7.136259078979492 0.0 0.0
                        }
                    }
                }
            }
            JOINT RightArm
            {
                OFFSET -12.673831939697266 0.0 0.0
                CHANNELS 3 Zrotation Xrotation Yrotation
                JOINT RightForeArm
                {
                    OFFSET -23.5552978515625 0.0 0.0
                    CHANNELS 3 Zrotation Xrotation Yrotation
                    JOINT RightHand
                    {
                        OFFSET -17.840646743774414 0.0 0.0
                        CHANNELS 3 Zrotation Xrotation Yrotation
                        End Site
                        {
                            OFFSET -7.136259078979492 0.0 0.0
                        }
                    }
                }
            }
        }
    }
}
MOTION
Frames: 11
Frame Time: 0.03333333333333333
0.000536035920958966 90.64151763916016 -0.0010609070304781199 6.397200624217744 -1.8697206962069775 14.798665598194024 7.308719039682189 3.908577444273222 -0.22785862599207507 0.9762806891113102 13.10340242148993 -0.9823625394576991 0.0 0.0 5.963540027744096e-16 21.346682095348022 -5.012760250059604 1.57086518304518 -27.043259045082458 41.68527670739304 6.467900695861133 0.0 6.311413196029166e-15 0.0 1.846391373470249 16.195961984307353 0.5815118669669328 -6.100741626650073e-08 7.557595224243236e-07 -5.499274722651892 2.336608043913683 8.521747936270826 162.5969000000254 135.54572556225523 -61.127832351717444 -147.3681757406067 2.4944124649633103e-06 1.6443847534996285e-06 89.76537898003107 -7.951386703658792e-16 -2.2069531490250793e-32 3.1805546814635168e-15 -132.31771920750708 -7.214597648441917 161.53230814139823 1.4650889174004006e-06 2.3051969590083747e-06 -121.94020959295881 -6.3611093629270335e-15 0.0 0.0
0.0005927704623900354 90.6416015625 -0.001070523983798921 6.4068661603195 -1.4641246834470987 15.92601139510283 7.447826986630524 3.319467954588987 -0.18595098963868179 1.0132399433344366 13.205002786622977 -0.9699772924849893 -1.5902773407317584e-15 1.9310840053969444e-32 -1.3914926731402886e-15 22.28562882276108 -6.473998122334369 2.110709503878713 -27.730228171395225 43.81358807864676 6.7751660813330306 1.1927080055488188e-15 -3.4138806523981697e-32 -3.2799470152592518e-15 2.0869902230956403 15.7452025069348 0.5723012652328412 9.791401679602603e-07 2.083664296285816e-06 -5.861525154986145 1.7718527377528208 8.298203066160982 161.79302665226137 136.5051374707965 -60.60247892301507 -146.32989585215677 -3.771926013192866e-06 -5.309880356849927e-06 98.32872550486334 4.770832022195275e-15 1.3241718894150476e-31 3.1805546814635168e-15 -132.4280415979226 -6.074734243393524 161.8616335113391 1.3913290937493405e-06 3.798724472248608e-07 -122.75832093506439 0.0 0.0 0.0
0.0006040336447767913 90.64169311523438 -0.0010902691865339875 6.532254294304457 -1.1722480348565585 16.446739336879638 7.319657685577598 2.8965950280302097 -0.15285629568529746 0.863915883116236 13.403982613344517 -0.9077709380394993 1.5902773407317588e-15 1.3793457181406746e-32 9.939233379573492e-16 23.164300020883246 -7.587039150472995 2.5925478180437316 -28.74981069377585 45.46185370022203 7.150936463037758 1.1034765745125397e-32 -6.361109362927035e-15 1.9878466759146985e-16 2.1208422713171866 15.472913215117527 0.5675744610764789 1.1295996481033312e-07 -5.675109710939074e-07 -6.187911278501855 1.284843823625361 7.796194747319644 160.5472402296688 137.94870758392105 -60.441171232326305 -144.8602869952145 -3.7157850688652885e-07 -2.005944686441356e-06 106.01060563419377 0.0 0.0 0.0 -132.96226856320428 -5.558316700333193 161.8181112882062 -2.811232275412832e-07 3.1792012170603486e-06 -124.027356244689 0.0 0.0 0.0
0.0006026774062775075 90.64176940917969 -0.0011178887216374278 6.7346119601722165 -0.9998668538623855 17.0190976692609 6.944325956345924 2.5518480617284336 -0.11508037757702239 1.0125793045349465 13.688423460251933 -0.8589080219051226 -1.5902773407317584e-15 3.975693351829397e-16 -4.572047354603805e-15 23.805848272425457 -8.72031799898216 3.0753270676014957 -29.92740137904093 47.04384428041774 7.829094420728043 3.975693351829395e-16 -4.9696166897867443e-17 -1.1927080055488184e-15 1.995015628555719 15.144951103428925 0.6043043676892859 -6.355876078949565e-07 -4.241889006942698e-07 -6.17123972699763 1.1122687761416912 7.9861013894565325 160.08844821115198 138.44519996571321 -59.5824137234022 -144.71412799081799 7.6104125127770296e-06 2.7736185705287135e-06 111.15399074148428 0.0 0.0 0.0 -133.81915223328022 -4.790442875782664 161.28197402703483 2.6827041553395515e-07 -1.8880385159764868e-07 -124.04937445475315 6.3611093629270335e-15 1.7655625192200634e-31 3.1805546814635168e-15
0.0006053690449334681 90.64187622070312 -0.0011413260363042355 7.0166632334577885 -0.9999653916965898 17.111427957321105 6.535357826574946 2.479496503443171 -0.09993371049674002 0.9659123353117536 13.850562307600493 -0.7917009778949807 3.4483642953516864e-33 3.975693351829396e-16 -9.93923337957349e-16 24.27274189683959 -9.213045737612967 3.355911960684536 -31.209031075318663 48.15877657435773 8.509829288434446 7.951386703658791e-16 8.276074308844047e-33 1.1927080055488186e-15 1.8725401134179256 15.14310767160912 0.6011324487990476 7.158474845729899e-07 2.4218904768172966e-07 -6.200732352213069 1.1743973249395858 8.20398708835211 158.9926868057214 137.33763856757238 -58.050627690863166 -146.3742388365474 -1.681516164014285e-06 -1.6761482615129453e-06 115.62804828321237 -3.1805546814635168e-15 -6.3611093629270335e-15 -3.1805546814635168e-15 -134.27911501718884 -4.3871257751511 160.1338376277806 -1.7968267045335488e-06 -1.158281699449738e-06 -124.60554100003404 -6.3611093629270335e-15 -6.3611093629270335e-15 3.1805546814635164e-15
0.0006139514152891934 90.64196014404297 -0.0011382133234292269 7.212491975507293 -0.966141436186123 17.531767710152252 6.221362055592317 2.3637359819427273 -0.08142694085841308 1.0798763280407628 13.916757934562662 -0.7412132820450601 1.5902773407317588e-15 1.1034765745125397e-32 7.951386703658794e-16 24.56397389304348 -9.617838586476996 3.552354925173615 -31.41501766382134 49.407057282081375 8.646566326879855 1.1927080055488188e-15 -6.361109362927033e-15 1.5902773407317582e-15 1.9208384192410584 14.83610141921943 0.583223644612089 3.5214708107543515e-07 -5.702448702561117e-07 -6.107398923206774 1.2247069314386916 9.415754483241644 158.24305940622568 136.10452256330302 -57.130031461654404 -148.0967542594928 6.529930039235426e-06 -7.885261904389433e-07 117.81467170897335 -3.1805546814635164e-15 0.0 0.0 -134.99573494450073 -2.759148750671316 159.22346758185782 1.7266232140904719e-06 -1.9114721922688857e-06 -124.41875454904931 0.0 0.0 -3.1805546814635168e-15
0.00061031524091959 90.64204406738281 -0.001152652781456709 7.371216767125627 -0.881919629573448 17.844942524025143 5.970128430487985 2.180017887938991 -0.06888952867866681 1.278003257290075 14.132007124106314 -0.7610420665866037 -1.5902773407317584e-15 -2.782985346280577e-15 -3.975693351829396e-16 24.764235492058802 -10.062034955954273 3.7717403350119194 -31.74189390393553 50.68228318962751 8.862935911489966 0.0 0.0 -1.1927080055488188e-15 2.0910471775717587 14.484434526801852 0.5049999586537466 -7.785872664279716e-07 -8.214708820151868e-07 -5.929705562541903 1.0786990417988855 9.9428169955889 156.78472873273026 135.06270700160565 -56.5151655044941 -149.32284438886828 -7.333242866307181e-07 1.6292578602197975e-06 120.36103122531395 0.0 0.0 0.0 -135.64436822502608 -1.5691562130669872 158.82530488909168 -3.318881338842988e-06 1.603282577496578e-06 -124.54811448923876 8.827812596100317e-32 -3.1805546814635168e-15 3.1805546814635168e-15
0.0006135792937129736 90.64212799072266 -0.0011617790441960096 7.671179183484892 -0.8191388093862885 18.0887245180739 5.797654095472702 2.1305252677093844 -0.06924494299074997 1.4889909962020056 14.437354840242854 -0.8423123172017439 -1.5902773407317582e-15 -3.1805546814635164e-15 3.975693351829395e-16 24.937191439637232 -10.156011078715714 3.886142459978642 -32.50615615550851 51.55455970214405 9.274547152362677 -1.2689980606894205e-31 6.3611093629270335e-15 2.2860236773019026e-15 1.8518395971572197 14.2760461350182 0.5020456628123547 -3.5746825952679776e-07 -5.345830832966016e-07 -5.921974601001711 1.085324887090989 10.303209485952147 155.48721800451636 134.01709822320407 -55.514539881913834 -151.0841760698049 1.5986880147729387e-06 -5.390012175169736e-07 122.71039041587245 0.0 0.0 0.0 -135.8310998182879 -0.0849452348124048 158.3932836308331 2.2390013101374908e-06 -2.4387679243105585e-07 -124.80945789599717 0.0 0.0 -3.1805546814635176e-15
0.0006123738712631166 90.6422348022461 -0.0011694930726662278 7.757122964426672 -0.9076513092096281 17.704418877157096 5.566434064937158 2.2132910083499575 -0.06435919950226167 1.7640645976137226 14.4936201512092 -0.8647327073647633 2.2069531490250793e-32 3.1805546814635168e-15 -7.951386703658792e-16 25.501497483849825 -9.883316778309371 3.901018318571303 -33.20436898583141 51.8526851509673 9.385771023821968 -7.951386703658792e-16 8.965747167914385e-33 -1.2921003393445538e-15 1.7029541508589703 14.317374267033495 0.5321321047598029 -1.2530136699945523e-08 3.8925386484966204e-07 -5.989356724551252 1.325898142196803 9.929868254072456 155.59336931401106 134.0808584331218 -54.40786028474407 -151.6738513958644 8.449261892916136e-08 1.7893731419640362e-06 125.62279738099014 -3.1805546814635168e-15 -6.3611093629270335e-15 -1.7655625192200634e-31 -136.4234485415737 0.3308167521830241 157.1944790943917 2.077218745523329e-06 -9.280731489327251e-07 -124.21725068496171 0.0 -3.1805546814635168e-15 0.0
0.0005917219095863402 90.64229583740234 -0.0011742751812562346 8.018423068684113 -1.0120217912297051 17.873127975179262 5.492596118380343 2.300423048641703 -0.06785104102588228 1.8023491138891412 14.647738587555292 -0.8883888994792983 1.5902773407317584e-15 -3.1805546814635168e-15 -1.3914926731402886e-15 25.858399536851493 -10.010062298025224 4.041130908910433 -33.78139845571355 52.66874485106067 9.603294844129465 -7.951386703658792e-16 6.896728590703373e-33 -9.93923337957349e-16 1.4598809966072308 14.138602729279947 0.5621617460176165 9.932730901320398e-08 4.2507991766863374e-07 -5.574234407867554 1.5630625351161473 9.884425890944243 155.1961670542359 134.35229226232977 -54.05118575796858 -152.44669473256417 -2.155077110989471e-07 1.5566384765236149e-06 127.64046097633764 -1.7655625192200634e-31 -6.3611093629270335e-15 -3.1805546814635168e-15 -137.18169524166925 2.840842069461144 155.90749636872584 5.531694784614858e-07 4.556010457949755e-06 -123.94357649958934 6.3611093629270335e-15 0.0 0.0
0.0005742633366025984 90.64237213134766 -0.001178080914542079 8.254194576231342 -0.987619615580385 18.033969920267566 5.301723780938406 2.2566265121829474 -0.06040993982525741 1.9564105414670276 14.835876667807938 -0.898344430552469 1.1034765745125397e-32 -3.1805546814635168e-15 3.975693351829396e-16 26.023509656555657 -10.31928303632668 4.205469329525588 -34.65249614519456 53.39957766262341 10.264826024960186 7.951386703658792e-16 6.3611093629270335e-15 5.963540027744094e-16 1.1630806859165834 14.102173641120853 0.625291578094016 2.307011605874355e-07 -9.21210791220429e-07 -5.182308932955353 2.065310295025667 10.05605061528179 154.15600684534772 134.19004278926485 -53.024277492836575 -153.2609207523701 8.07537898729426e-07 -3.676343195875731e-07 129.29672912113625 -3.1805546814635168e-15 -6.3611093629270335e-15 -3.1805546814635168e-15 -137.7335253982535 5.851029111541031 155.02896696859858 6.3359718311305625e-06 4.454163426159179e-06 -124.21283492405092 0.0 3.1805546814635168e-15 0.0
